# xmcd
#
# Track frame offsets: 
#        150
#        15900
#        33625
#        52387
#        65625
#        90262
#        111650
#        122987
#        141012
#        159525
#
# Disc length: 2403 seconds
#
# Revision: 0
# Processed by: cddbd v1.5.2PL0 Copyright (c) Steve Scherf et al.
# Submitted via: ExactAudioCopy v0.95b4
#
DISCID=8d09610a
DTITLE=Sarah Benck and The Robbers - Neighbor's Garden
DYEAR=2007
DGENRE=Blues
TTITLE0=Neighbor's Garden
TTITLE1=Dump the Truck
TTITLE2=Dig Your Grave
TTITLE3=What You Got
TTITLE4=Good Man
TTITLE5=Got to Be
TTITLE6=Once a Week
TTITLE7=Trails
TTITLE8=Alone
TTITLE9=I Can Still
EXTD=
EXTT0=
EXTT1=
EXTT2=
EXTT3=
EXTT4=
EXTT5=
EXTT6=
EXTT7=
EXTT8=
EXTT9=
PLAYORDER=
